<svg width="89" height="71" viewBox="0 0 89 71" fill="none" xmlns="http://www.w3.org/2000/svg">
<path d="M41.8451 31.8685L83.7922 31.2676C85.6044 31.5897 87.7344 32.3652 87.7344 38.1572V61.3169C87.7344 66.4924 83.8897 66.7649 81.9473 66.7649L54.1971 66.6713C50.4932 57.8874 47.1031 47.0733 43.3988 38.2942C42.2634 35.5988 41.4426 34.9237 41.845 31.8685C42.2043 31.9715 41.8451 31.8685 41.8451 31.8685Z" fill="#0288D1"/>
<g filter="url(#filter0_d_109_108)">
<mask id="mask0_109_108" style="mask-type:luminance" maskUnits="userSpaceOnUse" x="4" y="7" width="64" height="52">
<path d="M67.7436 36.5691L16.7591 58.0094L4 28.7862L54.9842 7.3457L67.7436 36.5691Z" fill="white"/>
</mask>
<g mask="url(#mask0_109_108)">
<path d="M13.6297 41.7784C13.2486 40.9199 12.5395 40.2428 11.6568 39.8933C10.7725 39.5446 9.78492 39.5541 8.90741 39.9169L5.78097 32.7563C5.61522 32.3766 5.5083 31.9723 5.46785 31.5606C5.35076 30.6304 5.54463 29.6875 6.01831 28.8733C6.49279 28.0608 7.2219 27.4208 8.09817 27.0503L50.701 9.13441C51.5795 8.76914 52.5527 8.69325 53.4794 8.91646C54.4062 9.13967 55.2352 9.6524 55.8426 10.3764C56.1184 10.6891 56.343 11.044 56.5088 11.4236L65.7758 32.6484C66.2018 33.6144 66.2459 34.7015 65.8949 35.696C65.7076 36.2863 65.3944 36.8301 64.9742 37.2884C64.552 37.7475 64.0362 38.1115 63.4585 38.3545L20.8558 56.2701C20.3217 56.4967 19.749 56.6153 19.1682 56.6237C18.5866 56.6302 18.0109 56.5246 17.4702 56.3107C16.9322 56.0982 16.4402 55.7829 16.0227 55.3827C15.608 54.9839 15.277 54.5059 15.0479 53.9811L11.7458 46.4181C12.6188 46.0447 13.3069 45.3495 13.6597 44.4805C14.0106 43.6123 14.0002 42.6414 13.6297 41.7784Z" fill="white"/>
</g>
<mask id="mask1_109_108" style="mask-type:luminance" maskUnits="userSpaceOnUse" x="54" y="0" width="32" height="37">
<path d="M85.2106 29.2236L67.2866 36.7612L54.5273 7.53779L72.4518 0L85.2106 29.2236Z" fill="white"/>
</mask>
<g mask="url(#mask1_109_108)">
<path d="M66.4911 34.2878L55.7929 9.78442C55.6559 9.47554 55.5821 9.14211 55.5779 8.80423C55.5733 8.46876 55.6359 8.13387 55.763 7.82155C55.8896 7.50741 56.0778 7.22328 56.3185 6.9813C56.5578 6.74188 56.843 6.54949 57.1594 6.41853L69.9868 1.02412C70.4772 0.813724 71.0252 0.763458 71.5483 0.878955C71.9577 0.961505 72.3404 1.14221 72.6651 1.40323C72.9903 1.66409 73.2457 1.99775 73.4124 2.37488L77.2546 11.1748C76.9145 11.3446 76.6005 11.5574 76.3192 11.8063C75.8912 12.2284 75.5772 12.75 75.4043 13.3216C75.2304 13.8939 75.2052 14.4987 75.3293 15.0822L75.3799 15.1976C75.4503 15.5718 75.604 15.9252 75.8317 16.2334L75.8823 16.3489C76.2231 16.8391 76.6853 17.2369 77.2249 17.5051C77.7652 17.7707 78.365 17.8993 78.9686 17.8753C79.3496 17.8623 79.7247 17.7851 80.0797 17.6461L84.1105 26.8783C84.2742 27.2568 84.3441 27.6685 84.3121 28.0793C84.2801 28.4903 84.1499 28.8869 83.9289 29.2366C83.6528 29.6861 83.2382 30.0407 82.744 30.2442L69.9168 35.6386C69.6018 35.773 69.2633 35.843 68.9215 35.8479C68.5774 35.8519 68.2377 35.7897 67.9194 35.6647C67.6005 35.5379 67.3103 35.3514 67.0661 35.1166C66.8196 34.8807 66.6248 34.5981 66.4911 34.2878Z" fill="white"/>
</g>
<mask id="mask2_109_108" style="mask-type:luminance" maskUnits="userSpaceOnUse" x="54" y="0" width="20" height="11">
<path d="M73.7438 2.95659L55.8193 10.4943L54.5288 7.5376L72.4528 0L73.7438 2.95659Z" fill="white"/>
</mask>
<g mask="url(#mask2_109_108)">
<path d="M56.021 10.3028L55.7948 9.78494C55.6578 9.47598 55.584 9.14262 55.5798 8.80474C55.5751 8.4692 55.6378 8.13438 55.7648 7.82207C55.8915 7.50785 56.0797 7.2238 56.3209 6.98364C56.5597 6.74239 56.8449 6.55001 57.1612 6.41897L69.9886 1.02465C70.6247 0.761284 71.3414 0.753973 71.9818 1.0085C72.6237 1.26046 73.1381 1.75232 73.4143 2.37536L73.6405 2.89322L56.021 10.3028Z" fill="#32C6DA"/>
</g>
<mask id="mask3_109_108" style="mask-type:luminance" maskUnits="userSpaceOnUse" x="66" y="26" width="20" height="11">
<path d="M66.2739 33.9663L83.9075 26.5508L85.1987 29.5074L67.5649 36.9229L66.2739 33.9663Z" fill="white"/>
</mask>
<g mask="url(#mask3_109_108)">
<path d="M84.1033 26.6465L84.331 27.1639C84.4694 27.4724 84.5438 27.8055 84.5483 28.1431C84.5535 28.478 84.491 28.8123 84.363 29.1243C84.2357 29.4378 84.0467 29.7215 83.8041 29.9611C83.5644 30.2018 83.2779 30.3936 82.9594 30.5241L70.0537 35.9003C69.414 36.1628 68.6927 36.1694 68.0478 35.9146C67.4013 35.6626 66.8833 35.1708 66.6046 34.5484L66.3765 34.031L84.1033 26.6465Z" fill="#32C6DA"/>
</g>
<path d="M41.1884 42.0629L59.7864 34.2419L59.1112 32.6953L40.5132 40.5163L41.1884 42.0629Z" fill="#237677"/>
<path d="M39.2329 37.5454L57.8308 29.7243L57.1557 28.1777L38.5576 35.9988L39.2329 37.5454Z" fill="#237677"/>
<path d="M46.6538 29.3669L55.9518 25.4567L55.2766 23.9102L45.9785 27.8203L46.6538 29.3669Z" fill="#237677"/>
<mask id="mask4_109_108" style="mask-type:luminance" maskUnits="userSpaceOnUse" x="4" y="7" width="53" height="25">
<path d="M56.2766 10.3024L5.29184 31.743L4.00098 28.7863L54.9856 7.3457L56.2766 10.3024Z" fill="white"/>
</mask>
<g mask="url(#mask4_109_108)">
<path d="M5.46363 31.5784C5.34503 30.6447 5.53913 29.6975 6.01636 28.8818C6.49365 28.0661 7.22707 27.4263 8.1077 27.056L50.6926 9.14775C51.5734 8.77736 52.5508 8.69753 53.4819 8.92103C54.4129 9.14453 55.2458 9.65983 55.8546 10.3874L5.46363 31.5784Z" fill="#32C6DA"/>
</g>
<path d="M51.0148 18.5879L53.2326 17.6552C53.2664 17.641 53.2835 17.6028 53.2684 17.5678L52.3155 15.3862C52.3004 15.3512 52.2606 15.3369 52.2265 15.3512L50.009 16.2837C49.9753 16.2979 49.9582 16.3362 49.9733 16.3712L50.9257 18.5529C50.9413 18.5878 50.9811 18.6021 51.0148 18.5879Z" fill="#237677"/>
<path d="M47.2207 20.1838L49.4386 19.2512C49.4742 19.2362 49.4894 19.1988 49.4743 19.1637L48.5214 16.9822C48.5063 16.9472 48.4679 16.9322 48.4323 16.9472L46.2149 17.8797C46.1813 17.8939 46.166 17.9314 46.1811 17.9664L47.1335 20.148C47.1486 20.1831 47.187 20.198 47.2207 20.1838Z" fill="#237677"/>
<path d="M43.4284 21.7773L45.6463 20.8446C45.6799 20.8305 45.6971 20.7923 45.682 20.7572L44.7291 18.5756C44.714 18.5407 44.6743 18.5263 44.64 18.5407L42.4226 19.4732C42.3884 19.4875 42.3718 19.5256 42.387 19.5606L43.3393 21.7423C43.3549 21.7772 43.3947 21.7915 43.4284 21.7773Z" fill="#237677"/>
<path d="M39.636 23.3737L41.8554 22.4403C41.8894 22.426 41.9047 22.3886 41.8891 22.3536L40.9368 20.172C40.9217 20.137 40.8833 20.122 40.8495 20.1362L38.6303 21.0695C38.5961 21.0839 38.5808 21.1213 38.5965 21.1562L39.5489 23.3378C39.564 23.3728 39.6023 23.3878 39.636 23.3737Z" fill="#237677"/>
<path d="M35.8441 24.9686L38.0616 24.0362C38.0957 24.0218 38.1128 23.9836 38.0973 23.9487L37.1448 21.767C37.1298 21.732 37.0894 21.7178 37.0558 21.732L34.8384 22.6645C34.8042 22.6788 34.7871 22.7171 34.8027 22.752L35.755 24.9336C35.7702 24.9687 35.8104 24.9829 35.8441 24.9686Z" fill="#237677"/>
<path d="M65.7659 32.4868C66.1918 33.4527 66.3859 33.8975 66.0055 35.3323L54.2778 9.14648C54.9135 9.41761 55.3928 9.68544 55.8327 10.2148C56.1086 10.5275 56.3326 10.8806 56.4988 11.2621" fill="#32C6DA"/>
<path d="M71.5309 9.33203L71.8368 10.0389L59.8636 15.0305L59.5576 14.3237L71.5309 9.33203Z" fill="#176061"/>
<path d="M72.1887 10.7617L72.799 12.1717L62.2924 16.5519L61.6821 15.1419L72.1887 10.7617Z" fill="#176061"/>
<path d="M73.1053 12.877L73.4112 13.5838L62.9046 17.964L62.5986 17.2571L73.1053 12.877Z" fill="#176061"/>
<path d="M73.7156 14.2871L74.3261 15.6976L63.8194 20.0778L63.209 18.6674L73.7156 14.2871Z" fill="#176061"/>
<path d="M74.6321 16.4043L74.938 17.1111L64.4314 21.4914L64.1255 20.7845L74.6321 16.4043Z" fill="#176061"/>
<path d="M75.2556 17.8457L75.5617 18.5525L65.055 22.9328L64.749 22.2259L75.2556 17.8457Z" fill="#176061"/>
<path d="M75.8664 19.2559L76.4767 20.6663L65.9704 25.0465L65.3599 23.6361L75.8664 19.2559Z" fill="#176061"/>
<path d="M76.7823 21.373L77.0882 22.0799L66.5818 26.4601L66.2759 25.7533L76.7823 21.373Z" fill="#176061"/>
<path d="M77.3436 22.7617L77.6495 23.4685L65.676 28.4602L65.3701 27.7534L77.3436 22.7617Z" fill="#176061"/>
</g>
<g filter="url(#filter1_d_109_108)">
<mask id="mask5_109_108" style="mask-type:luminance" maskUnits="userSpaceOnUse" x="4" y="20" width="62" height="43">
<path d="M65.99 53.0258L9.47228 62.1417L4.04736 29.747L60.5649 20.6309L65.99 53.0258Z" fill="white"/>
</mask>
<g mask="url(#mask5_109_108)">
<path d="M10.4264 45.1103C10.2606 44.1571 9.72042 43.3061 8.92365 42.7415C8.12494 42.1772 7.1325 41.9469 6.1613 42.0976L4.83199 34.1597C4.76153 33.7389 4.75627 33.3076 4.81948 32.8851C4.93657 31.9241 5.36862 31.0258 6.04873 30.3246C6.72922 29.6253 7.62149 29.1607 8.59336 29.002L55.8198 21.3845C56.7925 21.2316 57.7873 21.3917 58.6601 21.8406C59.5329 22.2893 60.2349 23.0047 60.6613 23.878C60.859 24.2584 60.9947 24.6687 61.0652 25.0895L65.0055 48.6178C65.1889 49.6897 64.9592 50.7903 64.3566 51.7021C64.0201 52.2483 63.5689 52.7175 63.0321 53.0749C62.4932 53.4327 61.8843 53.6724 61.2439 53.7757L14.0177 61.393C13.4252 61.4905 12.8211 61.4704 12.2367 61.3378C11.652 61.2031 11.1014 60.9574 10.6133 60.6117C10.1275 60.268 9.71364 59.8325 9.39616 59.3299C9.0809 58.8294 8.86954 58.2698 8.77205 57.688L7.36811 49.3042C8.33741 49.1419 9.20251 48.612 9.77519 47.8265C10.3459 47.0413 10.5802 46.0654 10.4264 45.1103Z" fill="white"/>
</g>
<mask id="mask6_109_108" style="mask-type:luminance" maskUnits="userSpaceOnUse" x="60" y="17" width="26" height="37">
<path d="M85.3531 49.9028L65.4838 53.1077L60.0586 20.7127L79.9285 17.5078L85.3531 49.9028Z" fill="white"/>
</mask>
<g mask="url(#mask6_109_108)">
<path d="M65.3098 50.4358L60.7612 23.2732C60.7017 22.9302 60.7118 22.578 60.7927 22.2384C60.8726 21.9009 61.0199 21.5804 61.226 21.2981C61.4321 21.0139 61.6924 20.7747 61.9947 20.5906C62.2949 20.4087 62.6293 20.2851 62.9795 20.2305L77.1992 17.9369C77.744 17.845 78.3059 17.9277 78.8015 18.1705C79.1907 18.3527 79.5286 18.6267 79.7884 18.9673C80.0488 19.3077 80.2208 19.7043 80.2929 20.1228L81.9265 29.8778C81.5432 29.9655 81.1749 30.1027 80.8295 30.2838C80.2944 30.6031 79.8472 31.0496 79.5301 31.5808C79.2116 32.1123 79.0337 32.7125 79.0114 33.3276L79.033 33.4556C79.0092 33.8478 79.0747 34.2396 79.225 34.6037L79.2466 34.7318C79.4646 35.306 79.8278 35.8171 80.3004 36.2168C80.7752 36.6143 81.3453 36.8889 81.9563 37.0114C82.3411 37.0908 82.737 37.1045 83.1277 37.0514L84.8417 47.2855C84.9101 47.7047 84.8759 48.1343 84.7412 48.5386C84.6057 48.9428 84.3743 49.3087 84.0647 49.6057C83.6747 49.9893 83.1694 50.244 82.6231 50.3281L68.4036 52.6218C68.0539 52.68 67.6969 52.668 67.353 52.59C67.0071 52.5104 66.6821 52.3656 66.3945 52.163C66.1069 51.9585 65.8629 51.701 65.6773 51.4063C65.4896 51.1099 65.3656 50.7794 65.3098 50.4358Z" fill="white"/>
</g>
<mask id="mask7_109_108" style="mask-type:luminance" maskUnits="userSpaceOnUse" x="60" y="17" width="21" height="7">
<path d="M80.4783 20.7853L60.6084 23.9902L60.0601 20.7127L79.929 17.5078L80.4783 20.7853Z" fill="white"/>
</mask>
<g mask="url(#mask7_109_108)">
<path d="M60.8593 23.8455L60.7631 23.2714C60.7037 22.9285 60.7137 22.5764 60.7947 22.2366C60.8746 21.8991 61.0218 21.5786 61.2279 21.2963C61.434 21.0121 61.6943 20.773 61.9966 20.5908C62.2969 20.4069 62.6313 20.2833 62.9814 20.2288L77.2008 17.9352C77.9048 17.8256 78.6252 17.9923 79.2035 18.4029C79.7832 18.8114 80.1747 19.4294 80.2945 20.1211L80.3912 20.6951L60.8593 23.8455Z" fill="#32C6DA"/>
</g>
<mask id="mask8_109_108" style="mask-type:luminance" maskUnits="userSpaceOnUse" x="65" y="46" width="21" height="8">
<path d="M65.1729 50.1689L84.7202 46.5449L85.2695 50.3122L65.7218 53.9362L65.1729 50.1689Z" fill="white"/>
</mask>
<g mask="url(#mask8_109_108)">
<path d="M84.7679 46.8457L84.8654 47.4402C84.9265 47.7955 84.9175 48.1601 84.8364 48.5116C84.7583 48.8608 84.6117 49.1923 84.4055 49.484C84.2001 49.7777 83.9404 50.0246 83.6389 50.2125C83.339 50.402 83.0049 50.5292 82.6543 50.5846L68.4314 52.9218C67.7273 53.0334 67.0062 52.8589 66.4267 52.4322C65.8451 52.0079 65.4516 51.3669 65.3297 50.6505L65.2319 50.0559L84.7679 46.8457Z" fill="#32C6DA"/>
</g>
<path d="M37.9828 52.0866L58.5992 48.7613L58.3122 47.0469L37.6958 50.3722L37.9828 52.0866Z" fill="#237677"/>
<path d="M37.1616 47.0827L57.778 43.7574L57.4908 42.043L36.8745 45.3683L37.1616 47.0827Z" fill="#237677"/>
<path d="M46.6625 40.6855L56.9697 39.023L56.6826 37.3086L46.3755 38.9711L46.6625 40.6855Z" fill="#237677"/>
<mask id="mask9_109_108" style="mask-type:luminance" maskUnits="userSpaceOnUse" x="4" y="20" width="58" height="14">
<path d="M61.1151 23.9084L4.59717 33.0245L4.04834 29.7469L60.5662 20.6309L61.1151 23.9084Z" fill="white"/>
</mask>
<g mask="url(#mask9_109_108)">
<path d="M4.81104 32.9014C4.9275 31.9365 5.36086 31.0341 6.04492 30.3321C6.72903 29.6303 7.62556 29.167 8.60174 29.0095L55.8083 21.3954C56.7846 21.2379 57.7847 21.3952 58.6617 21.8453C59.5388 22.2954 60.2439 23.0142 60.6708 23.8914L4.81104 32.9014Z" fill="#32C6DA"/>
</g>
<mask id="mask10_109_108" style="mask-type:luminance" maskUnits="userSpaceOnUse" x="8" y="49" width="58" height="15">
<path d="M8.71436 59.4618L65.3224 49.9121L65.838 53.5304L9.23003 63.0802L8.71436 59.4618Z" fill="white"/>
</mask>
<g mask="url(#mask10_109_108)">
<path d="M65.107 50.0469C64.9808 51.1096 64.5383 52.1008 63.8472 52.8685C63.156 53.6363 62.2548 54.1391 61.277 54.3041L13.9952 62.2804C13.0173 62.4454 12.0189 62.2631 11.1464 61.7591C10.274 61.2551 9.57623 60.4564 9.1582 59.4855L65.107 50.0469Z" fill="#32C6DA"/>
</g>
<path d="M53.7514 30.9379L56.21 30.5414C56.2474 30.5354 56.2741 30.5011 56.2678 30.4624L55.8624 28.044C55.8561 28.0052 55.8199 27.9812 55.782 27.9873L53.3239 28.3838C53.2866 28.3899 53.2597 28.424 53.2661 28.4628L53.6709 30.8812C53.6778 30.9199 53.7141 30.944 53.7514 30.9379Z" fill="#237677"/>
<path d="M49.5452 31.6157L52.0038 31.2192C52.0432 31.2128 52.068 31.179 52.0616 31.1402L51.6562 28.7217C51.6499 28.683 51.6152 28.6587 51.5758 28.6651L49.1177 29.0615C49.0804 29.0676 49.0557 29.1015 49.062 29.1403L49.4669 31.5586C49.4731 31.5975 49.5079 31.6218 49.5452 31.6157Z" fill="#237677"/>
<path d="M45.3417 32.2934L47.8003 31.8968C47.8377 31.8909 47.8645 31.8567 47.8582 31.8179L47.4528 29.3995C47.4465 29.3607 47.4102 29.3367 47.3723 29.3427L44.9142 29.7392C44.8764 29.7453 44.8501 29.7795 44.8564 29.8183L45.2613 32.2367C45.2681 32.2755 45.3044 32.2994 45.3417 32.2934Z" fill="#237677"/>
<path d="M41.1377 32.9714L43.5979 32.5746C43.6358 32.5685 43.6605 32.5346 43.6536 32.4958L43.2488 30.0775C43.2424 30.0387 43.2077 30.0144 43.1704 30.0205L40.7102 30.4173C40.6723 30.4233 40.6476 30.4572 40.6545 30.496L41.0593 32.9144C41.0656 32.9531 41.1003 32.9775 41.1377 32.9714Z" fill="#237677"/>
<path d="M36.9346 33.6508L39.3927 33.2543C39.4306 33.2482 39.4574 33.2141 39.4506 33.1753L39.0457 30.7569C39.0394 30.7181 39.0026 30.6941 38.9652 30.7001L36.5071 31.0967C36.4693 31.1027 36.4425 31.1369 36.4493 31.1757L36.8542 33.594C36.8605 33.6329 36.8973 33.6569 36.9346 33.6508Z" fill="#237677"/>
<path d="M65.0365 48.4521C65.22 49.5239 65.3025 50.017 64.5594 51.3629L59.4028 22.2637C59.9718 22.6898 60.3848 23.0747 60.6923 23.7123C60.8901 24.0927 61.0257 24.5011 61.0962 24.9239" fill="#32C6DA"/>
<path d="M76.6529 26.6387L76.7817 27.4215L63.5196 29.5188L63.3911 28.7359L76.6529 26.6387Z" fill="#176061"/>
<path d="M76.952 28.2324L77.2087 29.7941L65.5713 31.6345L65.3149 30.0728L76.952 28.2324Z" fill="#176061"/>
<path d="M77.3366 30.5762L77.4654 31.359L65.8283 33.1994L65.6997 32.4166L77.3366 30.5762Z" fill="#176061"/>
<path d="M77.5938 32.1387L77.8505 33.7008L66.213 35.5412L65.9565 33.979L77.5938 32.1387Z" fill="#176061"/>
<path d="M77.9783 34.4824L78.107 35.2653L66.4698 37.1056L66.3413 36.3228L77.9783 34.4824Z" fill="#176061"/>
<path d="M78.2411 36.0801L78.3691 36.8629L66.732 38.7033L66.6035 37.9205L78.2411 36.0801Z" fill="#176061"/>
<path d="M78.4969 37.6406L78.7537 39.2028L67.1164 41.0432L66.8599 39.4809L78.4969 37.6406Z" fill="#176061"/>
<path d="M78.8827 39.9863L79.0107 40.7692L67.3736 42.6095L67.2451 41.8266L78.8827 39.9863Z" fill="#176061"/>
<path d="M79.0947 41.5137L79.2235 42.2966L65.9615 44.3939L65.833 43.6109L79.0947 41.5137Z" fill="#176061"/>
</g>
<path d="M9.57648 31.1211C19.689 31.2007 42.0215 31.1211 42.0215 31.1211C50.7035 31.2396 53.5342 37.4619 55.0083 40.2043C59.4323 48.4455 59.3699 58.8022 66.1519 66.7316C66.1519 66.7316 29.6607 66.8056 11.2429 66.7316C9.35061 66.7206 6.70173 66.6149 5.40937 65.2283C4.32172 64.0619 4.16532 62.3321 4.0835 60.7484C4.1396 52.2708 4.25604 43.6321 4.47861 34.9508C4.53249 34.3301 4.58563 33.7009 4.83706 33.1305C5.45188 31.7367 6.42138 31.121 9.57648 31.1211Z" fill="#64B5F6"/>
<path d="M42.3174 49.2881C42.3174 49.2881 46.1495 49.0814 46.3383 47.821L46.3328 47.6969C46.1021 46.4442 42.2616 46.3754 42.2616 46.3754L36.3322 46.4843C36.0331 46.4928 35.7529 46.3648 35.5634 46.138L34.3635 44.7184L35.7641 44.6926C35.9677 44.6889 36.1281 44.5254 36.1243 44.3256L36.1189 44.041C36.1151 43.8412 35.9484 43.6837 35.7448 43.6874L34.9428 43.7022C34.7144 43.7063 34.4866 43.7348 34.2623 43.7844L33.6876 43.913L27.9087 37.0469L26.6964 37.0722L30.1115 43.9514L30.5471 46.5512L24.6894 47.0313L21.9739 44.4643L20.8789 44.4874L22.0358 47.6858L22.0506 48.4608L22.0525 48.7243L21.0221 51.9659L22.1171 51.9427L24.7297 49.2809L30.6043 49.5425L30.2655 52.1595L27.119 59.1624L28.3283 59.1401L33.8435 52.0638L34.4197 52.174C34.6458 52.2155 34.8745 52.2354 35.1059 52.2281L35.905 52.2165C36.1086 52.2127 36.269 52.0495 36.2652 51.8497L36.2597 51.5648C36.2559 51.3651 36.0893 51.2078 35.8888 51.2142L34.4912 51.2368L35.6298 49.7743C35.8105 49.5408 36.0918 49.4024 36.388 49.3969L42.3174 49.2881Z" fill="white"/>
<defs>
<filter id="filter0_d_109_108" x="1.42969" y="0.818359" width="87.1191" height="63.8066" filterUnits="userSpaceOnUse" color-interpolation-filters="sRGB">
<feFlood flood-opacity="0" result="BackgroundImageFix"/>
<feColorMatrix in="SourceAlpha" type="matrix" values="0 0 0 0 0 0 0 0 0 0 0 0 0 0 0 0 0 0 127 0" result="hardAlpha"/>
<feOffset dy="4"/>
<feGaussianBlur stdDeviation="2"/>
<feComposite in2="hardAlpha" operator="out"/>
<feColorMatrix type="matrix" values="0 0 0 0 0 0 0 0 0 0 0 0 0 0 0 0 0 0 0.25 0"/>
<feBlend mode="normal" in2="BackgroundImageFix" result="effect1_dropShadow_109_108"/>
<feBlend mode="normal" in="SourceGraphic" in2="effect1_dropShadow_109_108" result="shape"/>
</filter>
<filter id="filter1_d_109_108" x="0.775391" y="17.9004" width="88.1299" height="52.4395" filterUnits="userSpaceOnUse" color-interpolation-filters="sRGB">
<feFlood flood-opacity="0" result="BackgroundImageFix"/>
<feColorMatrix in="SourceAlpha" type="matrix" values="0 0 0 0 0 0 0 0 0 0 0 0 0 0 0 0 0 0 127 0" result="hardAlpha"/>
<feOffset dy="4"/>
<feGaussianBlur stdDeviation="2"/>
<feComposite in2="hardAlpha" operator="out"/>
<feColorMatrix type="matrix" values="0 0 0 0 0 0 0 0 0 0 0 0 0 0 0 0 0 0 0.25 0"/>
<feBlend mode="normal" in2="BackgroundImageFix" result="effect1_dropShadow_109_108"/>
<feBlend mode="normal" in="SourceGraphic" in2="effect1_dropShadow_109_108" result="shape"/>
</filter>
</defs>
</svg>
