<svg width="113" height="75" viewBox="0 0 113 75" fill="none" xmlns="http://www.w3.org/2000/svg">
<g clip-path="url(#clip0_111_119)">
<path d="M88.058 64.5476C88.058 67.3197 86.9502 69.9784 84.9781 71.9386C83.0064 73.8988 80.3317 75 77.5429 75C71.7354 75 67.0278 70.3203 67.0278 64.5476C67.0278 58.7749 71.7354 54.0952 77.5429 54.0952C80.3317 54.0952 83.0064 55.1964 84.9781 57.1566C86.9502 59.1168 88.058 61.7754 88.058 64.5476Z" fill="#A1E4E4"/>
<path d="M80.7727 70.1115C79.28 70.969 77.508 71.205 75.847 70.7674C74.1856 70.3298 72.7712 69.2546 71.9149 67.7782C70.1309 64.7038 71.2047 60.7639 74.313 58.9781C77.4214 57.1924 81.3873 58.237 83.1709 61.3114C84.0276 62.7877 84.2562 64.5443 83.8065 66.1946C83.3564 67.845 82.2654 69.2539 80.7727 70.1115Z" fill="#162D50"/>
<path d="M80.0926 68.9413C78.9143 69.6183 77.5157 69.8046 76.2043 69.4592C74.8926 69.1137 73.7762 68.2649 73.1001 67.0994C71.6917 64.6723 72.5394 61.562 74.9934 60.1522C77.4471 58.7425 80.578 59.5671 81.986 61.9942C82.6625 63.1597 82.8427 64.5464 82.4878 65.8492C82.1325 67.1521 81.2713 68.2643 80.0926 68.9413Z" fill="#162D50"/>
<path d="M77.1549 30.9589L82.0949 14.893C81.3086 14.1147 81.8835 13.8652 82.4842 13.6258L85.2085 4.55089C85.343 4.11307 85.0706 3.65847 84.598 3.53093L71.5985 0.0313421C71.1259 -0.0958276 70.6372 0.154032 70.5023 0.591854L67.7068 9.89986C68.2371 10.485 68.263 10.9385 67.3253 11.1406L62.4491 26.9999C62.3142 27.4377 62.5866 27.8927 63.0592 28.0199L76.0587 31.5195C76.5313 31.647 77.0204 31.3968 77.1549 30.9589Z" fill="#A1E4E4"/>
<path d="M80.3398 14.2554L78.864 13.884C78.741 13.8534 78.6758 13.7176 78.7178 13.5804L78.7264 13.5513C78.7684 13.4141 78.9011 13.3283 79.024 13.3592L80.4995 13.7303C80.6224 13.7613 80.688 13.8966 80.646 14.0339L80.637 14.0633C80.5951 14.2006 80.4628 14.2864 80.3398 14.2554Z" fill="#162D50"/>
<path d="M77.3268 13.4292L75.8513 13.0582C75.7283 13.0272 75.6631 12.8918 75.7051 12.7546L75.7137 12.7251C75.7557 12.5879 75.8884 12.5021 76.0113 12.5331L77.4868 12.9045C77.6097 12.9351 77.6749 13.0708 77.6333 13.2081L77.6243 13.2372C77.5824 13.3744 77.4497 13.4602 77.3268 13.4292Z" fill="#162D50"/>
<path d="M74.3133 12.6011L72.8378 12.2297C72.7149 12.1991 72.6497 12.0633 72.6913 11.9261L72.7002 11.897C72.7422 11.7598 72.8749 11.674 72.9978 11.705L74.4733 12.076C74.5962 12.107 74.6615 12.2424 74.6199 12.3796L74.6109 12.409C74.5689 12.5463 74.4362 12.6321 74.3133 12.6011Z" fill="#162D50"/>
<path d="M71.2998 11.771L69.8243 11.4C69.7013 11.369 69.6357 11.2336 69.6777 11.0964L69.6867 11.0669C69.7287 10.9297 69.8614 10.8439 69.9839 10.8749L71.4598 11.2463C71.5827 11.2769 71.6479 11.4126 71.606 11.5499L71.5973 11.579C71.5554 11.7162 71.4227 11.802 71.2998 11.771Z" fill="#162D50"/>
<path d="M74.3793 15.942L71.6944 24.9502C71.6438 25.1206 71.3845 25.2146 71.1124 25.1605C70.8407 25.1068 70.6623 24.9263 70.7133 24.7559L73.3982 15.7481C73.4492 15.5776 73.7085 15.4837 73.9802 15.5374C74.2519 15.5911 74.4303 15.7716 74.3793 15.942Z" fill="#162D50"/>
<path d="M71.7621 15.4208L70.0864 21.0633C70.0358 21.2337 69.7761 21.3277 69.5044 21.274C69.2327 21.2203 69.0547 21.0398 69.1053 20.8693L70.7809 15.2269C70.8315 15.0561 71.0908 14.9625 71.3629 15.0162C71.6346 15.0699 71.8127 15.2504 71.7621 15.4208Z" fill="#162D50"/>
<path d="M76.961 16.5918L73.6337 27.7783C73.5827 27.9487 73.3234 28.0427 73.0517 27.9886C72.7796 27.9349 72.6015 27.7544 72.6521 27.584L75.9798 16.3975C76.0304 16.2271 76.2901 16.1331 76.5618 16.1872C76.8335 16.2409 77.0115 16.4214 76.961 16.5918Z" fill="#162D50"/>
<path d="M75.3848 5.21582L75.0839 6.23914C75.0704 6.28464 75.1577 6.34319 75.2792 6.37079C75.4002 6.39839 75.5085 6.38385 75.522 6.33835L75.823 5.31502C75.8365 5.2699 75.7491 5.21097 75.6281 5.18374C75.5066 5.15615 75.3983 5.1707 75.3848 5.21582Z" fill="#162D50"/>
<path d="M73.7816 5.5736L73.4803 6.59655C73.4672 6.64205 73.5541 6.7006 73.6756 6.7282C73.797 6.7558 73.9053 6.74125 73.9184 6.69612L74.2194 5.6728C74.2329 5.6273 74.1459 5.56875 74.0245 5.54115C73.9031 5.51356 73.7947 5.5281 73.7816 5.5736Z" fill="#162D50"/>
<path d="M76.294 7.07061L76.7404 5.39727C76.7576 5.33872 76.7269 5.28129 76.6718 5.26861L72.2551 6.2304C72.2 6.21735 72.1419 6.25427 72.125 6.31282L71.9372 6.76332C71.9204 6.82187 71.9511 6.8793 72.0058 6.89235L75.4972 7.0501L76.0995 7.37903C76.1486 7.40588 76.2772 7.12916 76.294 7.07061Z" fill="#162D50"/>
<path d="M78.8478 6.03662L78.5611 7.06293C78.5484 7.10843 78.4408 7.12111 78.3201 7.09127C78.1995 7.06144 78.1125 7.00102 78.1253 6.95552L78.4123 5.92885C78.4251 5.88335 78.5326 5.87066 78.6533 5.9005C78.774 5.93033 78.8606 5.99112 78.8478 6.03662Z" fill="#162D50"/>
<path d="M80.0554 7.05811L79.7687 8.08441C79.7559 8.12991 79.6483 8.14259 79.5277 8.11276C79.407 8.08292 79.32 8.02251 79.3328 7.97701L79.6199 6.95033C79.6326 6.90483 79.7402 6.89215 79.8608 6.92199C79.9815 6.95182 80.0681 7.01261 80.0554 7.05811Z" fill="#162D50"/>
<path d="M77.0344 7.24606L77.5441 5.58764C77.5606 5.52909 77.6183 5.49254 77.673 5.50559L81.0116 8.30332C81.0666 8.31638 81.0974 8.37418 81.0809 8.43311L81.0022 8.90934C80.9857 8.96789 80.928 9.00481 80.8733 8.99138L77.7412 7.58133L77.0389 7.60147C76.9816 7.60296 77.0179 7.30461 77.0344 7.24606Z" fill="#162D50"/>
<path d="M75.5708 10.5167L75.8413 9.52547C75.8515 9.49079 75.8417 9.45835 75.8196 9.4535L73.9304 10.1971C73.9083 10.1919 73.882 10.2158 73.8719 10.2505L73.7711 10.5205C73.761 10.5551 73.7707 10.5872 73.7932 10.5924L75.2398 10.5384L75.4741 10.7043C75.4932 10.7177 75.5606 10.5518 75.5708 10.5167Z" fill="#162D50"/>
<path d="M75.8704 10.5843L76.1668 9.59905C76.1765 9.56437 76.2024 9.54051 76.2245 9.5461L77.4736 11.0326C77.4961 11.0382 77.5059 11.0703 77.4961 11.1053L77.4392 11.3854C77.4294 11.4205 77.4036 11.4439 77.3811 11.4387L76.1477 10.7499L75.8542 10.7909C75.8302 10.7943 75.8606 10.6194 75.8704 10.5843Z" fill="#162D50"/>
<path d="M76.4665 10.0139L78.3438 3.53797C78.4135 3.29743 78.3794 2.48294 78.0657 2.41507C77.7516 2.3472 77.2809 3.05278 77.2112 3.2937L75.3339 9.76928C75.2642 10.0102 75.3886 11.3748 75.4688 11.3923C75.57 11.4139 76.3968 10.2548 76.4665 10.0139Z" fill="#162D50"/>
<path d="M78.4608 29.2044L78.655 12.5247C77.6738 11.9578 78.158 11.5815 78.6703 11.209L78.7157 1.80289C78.7213 1.34828 78.3286 0.973115 77.8357 0.961181L64.2819 0.637102C63.7891 0.625168 63.3881 0.981686 63.3828 1.43629L63.3345 11.0844C64.0136 11.5248 64.168 11.9571 63.3195 12.3725L63.128 28.8382C63.1224 29.2924 63.5151 29.668 64.008 29.6795L77.5614 30.0036C78.0546 30.0155 78.4556 29.659 78.4608 29.2044Z" fill="#A1E4E4"/>
<path d="M76.7778 12.3203L75.2464 12.3087C75.119 12.308 75.0174 12.1924 75.0186 12.0499L75.0189 12.0197C75.0204 11.8773 75.1239 11.7631 75.2517 11.7643L76.7826 11.7758C76.9101 11.7766 77.012 11.8922 77.0105 12.0346L77.0101 12.0648C77.009 12.2073 76.9052 12.3214 76.7778 12.3203Z" fill="#162D50"/>
<path d="M73.6314 12.2285L72.1004 12.2169C71.9726 12.2162 71.8711 12.1006 71.8726 11.9581V11.9279C71.8741 11.7855 71.9779 11.6713 72.1053 11.6725L73.6363 11.684C73.7641 11.6848 73.8656 11.8004 73.8641 11.9428V11.973C73.8626 12.1155 73.7588 12.2296 73.6314 12.2285Z" fill="#162D50"/>
<path d="M70.4849 12.1387L68.954 12.1271C68.8265 12.126 68.7246 12.0107 68.7261 11.8683L68.7265 11.8377C68.7276 11.6952 68.8314 11.5815 68.9588 11.5822L70.4902 11.5938C70.6176 11.5949 70.7192 11.7105 70.718 11.853L70.7177 11.8832C70.7162 12.0257 70.6127 12.1398 70.4849 12.1387Z" fill="#162D50"/>
<path d="M67.3379 12.0469L65.807 12.0353C65.6796 12.0342 65.578 11.919 65.5791 11.7765L65.5795 11.7459C65.5806 11.6035 65.6844 11.4897 65.8118 11.4905L67.3432 11.502C67.4706 11.5031 67.5722 11.6187 67.571 11.7612L67.5707 11.7914C67.5696 11.9339 67.4657 12.0476 67.3379 12.0469Z" fill="#162D50"/>
<path d="M71.5005 15.3503L71.4735 24.6826C71.4731 24.859 71.2494 25.0108 70.9713 25.0227C70.6936 25.0346 70.4698 24.9022 70.4702 24.7258L70.4972 15.3932C70.498 15.2168 70.7217 15.065 70.9994 15.0531C71.2775 15.0412 71.5009 15.1736 71.5005 15.3503Z" fill="#162D50"/>
<path d="M68.8232 15.461L68.8124 21.3052C68.812 21.482 68.5879 21.6334 68.3102 21.6457C68.0321 21.6577 67.8087 21.5249 67.8091 21.3485L67.82 15.5043C67.8203 15.3279 68.0441 15.1761 68.3222 15.1642C68.5999 15.1523 68.8232 15.2846 68.8232 15.461Z" fill="#162D50"/>
<path d="M74.1787 15.3706L74.1517 26.9579C74.1513 27.1343 73.9272 27.2861 73.6495 27.298C73.3718 27.3103 73.1481 27.1776 73.1484 27.0012L73.1754 15.4134C73.1758 15.2371 73.3999 15.0853 73.6776 15.0733C73.9557 15.0614 74.1791 15.1938 74.1787 15.3706Z" fill="#162D50"/>
<path d="M69.4155 4.75404L69.4159 5.81317C69.4159 5.86016 69.5171 5.89633 69.6419 5.89446C69.7671 5.89222 69.8675 5.85307 69.8675 5.80608L69.8668 4.74695C69.8668 4.69996 69.7659 4.66379 69.6408 4.66565C69.5156 4.66752 69.4152 4.70705 69.4155 4.75404Z" fill="#162D50"/>
<path d="M67.9683 5.46888L67.969 6.52838C67.969 6.57499 68.0698 6.61117 68.195 6.60931C68.3198 6.60744 68.4202 6.56791 68.4202 6.52092L68.4195 5.46179C68.4195 5.4148 68.3187 5.37863 68.1935 5.38087C68.0687 5.38273 67.9683 5.42189 67.9683 5.46888Z" fill="#162D50"/>
<path d="M70.8225 6.32832L70.7768 4.60686C70.7768 4.54645 70.7307 4.49797 70.6741 4.49871L66.6816 6.4663C66.6247 6.46667 66.5789 6.5159 66.5793 6.57631L66.5269 7.0559C66.5269 7.11632 66.573 7.1648 66.6295 7.16405L70.0468 6.49576L70.7221 6.67178C70.7772 6.68633 70.8229 6.38873 70.8225 6.32832Z" fill="#162D50"/>
<path d="M72.9946 4.73001L73.01 5.78913C73.0107 5.83612 72.9103 5.87342 72.7851 5.87304C72.6599 5.87267 72.5591 5.83463 72.5583 5.78764L72.543 4.72852C72.5422 4.68153 72.6427 4.64423 72.7678 4.64461C72.8926 4.64498 72.9938 4.68302 72.9946 4.73001Z" fill="#162D50"/>
<path d="M74.4527 5.43118L74.4681 6.49031C74.4688 6.53692 74.3684 6.57459 74.2436 6.57422C74.1184 6.57384 74.0172 6.53581 74.0165 6.48882L74.0015 5.42969C74.0007 5.3827 74.1008 5.34504 74.226 5.34578C74.3511 5.34616 74.4523 5.38419 74.4527 5.43118Z" fill="#162D50"/>
<path d="M71.5879 6.32584L71.6074 4.60402C71.6066 4.5436 71.652 4.49475 71.7086 4.49437L75.7307 6.41199C75.7873 6.41162 75.8337 6.46047 75.8345 6.52089L75.8944 6.99973C75.8952 7.06015 75.8498 7.109 75.7929 7.10938L72.3659 6.48359L71.6932 6.66819C71.6385 6.68311 71.5886 6.38625 71.5879 6.32584Z" fill="#162D50"/>
<path d="M71.1057 9.82916L71.0848 8.80807C71.0848 8.7719 71.066 8.74318 71.0432 8.74355L69.4305 9.90635C69.4073 9.90635 69.3889 9.93544 69.3893 9.97162L69.3687 10.2558C69.3687 10.2916 69.3874 10.3207 69.4103 10.3203L70.7921 9.92761L71.0656 10.0328C71.0881 10.0417 71.1061 9.86534 71.1057 9.82916Z" fill="#162D50"/>
<path d="M71.4146 9.82503L71.4202 8.80357C71.4198 8.76776 71.4378 8.73867 71.461 8.73867L73.0909 9.88097C73.1142 9.88097 73.1329 9.91005 73.1333 9.94585L73.158 10.23C73.1584 10.2658 73.1404 10.2949 73.1172 10.2949L71.7297 9.91975L71.4577 10.0283C71.4355 10.0372 71.4149 9.86083 71.4146 9.82503Z" fill="#162D50"/>
<path d="M71.8273 9.13169L71.795 2.43496C71.7939 2.18621 71.5289 1.40716 71.2066 1.41573C70.8843 1.42394 70.6302 2.21605 70.6314 2.46517L70.6636 9.16153C70.6647 9.41065 71.1737 10.6995 71.2561 10.6973C71.3603 10.6947 71.8284 9.38044 71.8273 9.13169Z" fill="#162D50"/>
<path d="M74.3565 10.6359L41.9638 10.7198C40.8436 10.7153 39.9442 11.5966 39.9468 12.6949L40.0232 63.1803C40.0259 64.2785 40.9298 65.1659 42.05 65.1699L74.4427 65.0861C75.5629 65.0906 76.4628 64.2093 76.4598 63.111L76.3833 12.6255C76.3818 11.5276 75.4767 10.64 74.3565 10.6359Z" fill="#F7C560"/>
<path d="M47.281 22.3749H46.6934V23.2669C46.6934 23.4582 46.6934 23.4582 46.6027 23.5574C46.512 23.6562 46.512 23.6562 46.3737 23.6562C46.229 23.6562 46.229 23.6562 46.1402 23.5593C46.0518 23.4605 46.0518 23.4605 46.0518 23.2714V20.8421C46.0518 20.6314 46.0518 20.6314 46.1488 20.5408C46.2463 20.4505 46.2463 20.4505 46.458 20.4505H47.281C47.6461 20.4505 47.6461 20.4505 47.8428 20.5065C48.0373 20.5602 48.0373 20.5602 48.1779 20.6851C48.3203 20.8097 48.3203 20.8097 48.3937 20.9902C48.4672 21.171 48.4672 21.171 48.4672 21.3967C48.4672 21.8781 48.4672 21.8781 48.1689 22.1276C47.8709 22.3749 47.8709 22.3749 47.281 22.3749ZM47.1255 20.9301H46.6934V21.8934H47.1255C47.3522 21.8934 47.3522 21.8934 47.5036 21.846C47.6569 21.7987 47.6569 21.7987 47.7368 21.6913C47.817 21.5835 47.817 21.5835 47.817 21.4097C47.817 21.2009 47.817 21.2009 47.6937 21.07C47.5554 20.9301 47.5554 20.9301 47.1255 20.9301Z" fill="#162D50"/>
<path d="M50.7677 23.2456L50.6163 22.85H49.3285L49.1775 23.2542C49.0887 23.4907 49.0887 23.4907 49.0261 23.5746C48.9635 23.6563 48.9635 23.6562 48.8211 23.6562C48.7 23.6562 48.7 23.6562 48.6071 23.5679C48.5142 23.4799 48.5142 23.4799 48.5142 23.368C48.5142 23.3035 48.5142 23.3035 48.5359 23.2348C48.5573 23.1658 48.5573 23.1658 48.6071 23.0435L49.4174 20.9969C49.4518 20.9085 49.4518 20.9085 49.4994 20.7862C49.5489 20.6612 49.5489 20.6612 49.6029 20.5796C49.6591 20.4979 49.6591 20.4979 49.7479 20.4487C49.8386 20.3968 49.8386 20.3968 49.9702 20.3968C50.1043 20.3968 50.1043 20.3968 50.1928 20.4487C50.2835 20.4979 50.2835 20.4979 50.3378 20.5773C50.3937 20.6571 50.3937 20.6571 50.4304 20.7496C50.4694 20.8399 50.4694 20.8399 50.5278 20.9924L51.3553 23.0264C51.4524 23.2583 51.4524 23.2583 51.4524 23.3639C51.4524 23.4735 51.4524 23.4735 51.3595 23.566C51.2688 23.6562 51.2688 23.6562 51.1391 23.6562C51.0634 23.6562 51.0634 23.6562 51.0094 23.6283C50.9555 23.6025 50.9555 23.6025 50.9187 23.5574C50.882 23.5101 50.882 23.5101 50.8389 23.4153C50.7977 23.3187 50.7977 23.3187 50.7677 23.2456ZM49.4972 22.3704H50.4435L49.966 21.07L49.4972 22.3704Z" fill="#162D50"/>
<path d="M54.4511 22.6564C54.4511 22.9425 54.4511 22.9425 54.3019 23.1703C54.155 23.3982 54.155 23.3982 53.8698 23.5272C53.5846 23.6563 53.5846 23.6562 53.1937 23.6562C52.7249 23.6562 52.7249 23.6563 52.4202 23.4799C52.2039 23.3531 52.2039 23.3531 52.0679 23.1424C51.9341 22.9294 51.9341 22.9294 51.9341 22.7295C51.9341 22.6135 51.9341 22.6135 52.0139 22.5319C52.096 22.448 52.096 22.448 52.2215 22.448C52.3227 22.448 52.3227 22.448 52.3921 22.5125C52.4633 22.577 52.4633 22.577 52.5131 22.7038C52.5735 22.8544 52.5735 22.8545 52.6428 22.9551C52.714 23.0562 52.714 23.0562 52.8414 23.123C52.9688 23.1875 52.9688 23.1875 53.1765 23.1875C53.4617 23.1875 53.4617 23.1875 53.6386 23.0562C53.8181 22.9231 53.8181 22.9231 53.8181 22.7254C53.8181 22.5684 53.8181 22.5684 53.7206 22.4714C53.6258 22.3726 53.6258 22.3726 53.4722 22.3212C53.3211 22.2693 53.3211 22.2693 53.0663 22.2115C52.7249 22.1321 52.7249 22.1321 52.4936 22.0265C52.2646 21.9191 52.2646 21.9191 52.1286 21.7364C51.9944 21.5514 51.9944 21.5514 51.9944 21.2784C51.9944 21.0181 51.9944 21.0181 52.1372 20.816C52.2796 20.6142 52.2796 20.6142 52.5498 20.5065C52.8197 20.3968 52.8197 20.3968 53.1851 20.3968C53.4767 20.3968 53.4767 20.3968 53.6884 20.4699C53.9024 20.5408 53.9024 20.5408 54.0426 20.6612C54.1831 20.7795 54.1831 20.7795 54.248 20.9107C54.3128 21.042 54.3128 21.042 54.3128 21.1666C54.3128 21.2807 54.3128 21.2807 54.2307 21.3732C54.1509 21.4634 54.1509 21.4634 54.0298 21.4634C53.9197 21.4634 53.9197 21.4634 53.8612 21.4097C53.805 21.3538 53.805 21.3538 53.7379 21.2288C53.6517 21.0506 53.6517 21.0506 53.5306 20.9517C53.4096 20.8507 53.4096 20.8507 53.1416 20.8507C52.8931 20.8507 52.8931 20.8507 52.7399 20.9603C52.5888 21.0677 52.5888 21.0677 52.5888 21.2203C52.5888 21.315 52.5888 21.315 52.6405 21.3836C52.6923 21.4526 52.6923 21.4526 52.783 21.5018C52.8736 21.5514 52.8736 21.5514 52.9666 21.5794C53.0595 21.6074 53.0595 21.6074 53.2735 21.6611C53.5415 21.7233 53.5415 21.7233 53.7574 21.7987C53.9759 21.874 53.9759 21.874 54.1269 21.9814C54.2802 22.0888 54.2802 22.0888 54.3645 22.2544C54.4511 22.4177 54.4511 22.4177 54.4511 22.6564Z" fill="#162D50"/>
<path d="M57.5243 22.6564C57.5243 22.9425 57.5243 22.9425 57.3755 23.1703C57.2286 23.3982 57.2286 23.3982 56.9434 23.5272C56.6582 23.6563 56.6582 23.6562 56.2669 23.6562C55.7981 23.6562 55.7981 23.6563 55.4934 23.4799C55.2775 23.3531 55.2775 23.3531 55.1415 23.1424C55.0073 22.9294 55.0073 22.9294 55.0073 22.7295C55.0073 22.6135 55.0073 22.6135 55.0875 22.5319C55.1696 22.448 55.1696 22.448 55.2948 22.448C55.3963 22.448 55.3963 22.448 55.4653 22.5125C55.5369 22.577 55.5369 22.577 55.5864 22.7038C55.6471 22.8544 55.6471 22.8545 55.716 22.9551C55.7872 23.0562 55.7872 23.0562 55.915 23.123C56.0425 23.1875 56.0425 23.1875 56.2497 23.1875C56.5349 23.1875 56.5349 23.1875 56.7122 23.0562C56.8913 22.9231 56.8913 22.9231 56.8913 22.7254C56.8913 22.5684 56.8913 22.5684 56.7943 22.4714C56.6991 22.3726 56.6991 22.3726 56.5458 22.3212C56.3944 22.2693 56.3944 22.2693 56.1395 22.2115C55.7981 22.1321 55.7981 22.1321 55.5669 22.0265C55.3379 21.9191 55.3379 21.9191 55.2018 21.7364C55.068 21.5514 55.068 21.5514 55.068 21.2784C55.068 21.0181 55.068 21.0181 55.2105 20.816C55.3532 20.6142 55.3532 20.6142 55.6231 20.5065C55.8933 20.3968 55.8933 20.3968 56.2583 20.3968C56.5499 20.3968 56.5499 20.3968 56.7617 20.4699C56.9756 20.5408 56.9756 20.5408 57.1162 20.6612C57.2567 20.7795 57.2567 20.7795 57.3212 20.9107C57.386 21.042 57.386 21.042 57.386 21.1666C57.386 21.2807 57.386 21.2807 57.304 21.3732C57.2241 21.4634 57.2241 21.4634 57.1031 21.4634C56.9929 21.4634 56.9929 21.4634 56.9348 21.4097C56.8786 21.3538 56.8786 21.3538 56.8115 21.2288C56.7249 21.0506 56.7249 21.0506 56.6042 20.9517C56.4832 20.8507 56.4832 20.8507 56.2152 20.8507C55.9667 20.8507 55.9668 20.8507 55.8135 20.9603C55.6621 21.0677 55.6621 21.0677 55.6621 21.2203C55.6621 21.315 55.6621 21.315 55.7138 21.3836C55.7659 21.4526 55.7659 21.4526 55.8566 21.5018C55.9473 21.5514 55.9473 21.5514 56.0402 21.5794C56.1332 21.6074 56.1332 21.6074 56.3472 21.6611C56.6147 21.7233 56.6147 21.7233 56.831 21.7987C57.0491 21.874 57.0491 21.874 57.2005 21.9814C57.3538 22.0888 57.3538 22.0888 57.4381 22.2544C57.5243 22.4177 57.5243 22.4177 57.5243 22.6564Z" fill="#162D50"/>
<path d="M59.4216 22.3749H58.834V23.2669C58.834 23.4582 58.834 23.4582 58.7433 23.5574C58.6526 23.6562 58.6526 23.6562 58.5143 23.6562C58.3697 23.6562 58.3697 23.6562 58.2808 23.5593C58.1924 23.4605 58.1924 23.4605 58.1924 23.2714V20.8421C58.1924 20.6314 58.1924 20.6314 58.2895 20.5408C58.3869 20.4505 58.3869 20.4505 58.5986 20.4505H59.4216C59.7867 20.4505 59.7867 20.4505 59.9834 20.5065C60.178 20.5602 60.178 20.5602 60.3181 20.6851C60.4609 20.8097 60.4609 20.8097 60.5344 20.9902C60.6078 21.171 60.6078 21.171 60.6078 21.3967C60.6078 21.8781 60.6078 21.8781 60.3095 22.1276C60.0115 22.3749 60.0115 22.3749 59.4216 22.3749ZM59.2661 20.9301H58.834V21.8934H59.2661C59.4929 21.8934 59.4929 21.8934 59.6443 21.846C59.7976 21.7987 59.7975 21.7987 59.8774 21.6913C59.9576 21.5835 59.9576 21.5835 59.9576 21.4097C59.9576 21.2009 59.9576 21.2009 59.8343 21.07C59.696 20.9301 59.696 20.9301 59.2661 20.9301Z" fill="#162D50"/>
<path d="M62.6603 20.3968C63.1528 20.3968 63.1528 20.3968 63.5051 20.5967C63.8592 20.7947 63.8592 20.7947 64.0406 21.1625C64.2224 21.5279 64.2224 21.5279 64.2224 22.0224C64.2224 22.3879 64.2224 22.3879 64.1231 22.6866C64.0234 22.9853 64.0234 22.9853 63.8248 23.2046C63.6261 23.4239 63.6261 23.4239 63.3364 23.5403C63.0471 23.6563 63.0471 23.6562 62.6731 23.6562C62.3017 23.6562 62.3017 23.6562 62.0078 23.538C61.714 23.4176 61.714 23.4176 61.5173 23.2005C61.3205 22.9831 61.3205 22.9831 61.2189 22.6781C61.1196 22.3726 61.1196 22.3726 61.1196 22.018C61.1196 21.6547 61.1196 21.6547 61.2234 21.3515C61.3291 21.0483 61.3291 21.0483 61.5281 20.8354C61.7268 20.6228 61.7268 20.6228 62.012 20.5109C62.2972 20.3968 62.2972 20.3968 62.6603 20.3968ZM63.5718 22.018C63.5718 21.6719 63.5718 21.6719 63.4597 21.4183C63.3473 21.1643 63.3473 21.1643 63.1378 21.0353C62.9302 20.9044 62.9302 20.9044 62.6603 20.9044C62.4681 20.9044 62.4681 20.9044 62.3035 20.9775C62.1416 21.0483 62.1416 21.0483 62.0228 21.186C61.9063 21.3236 61.9063 21.3236 61.837 21.5384C61.7702 21.7513 61.7702 21.7513 61.7702 22.018C61.7702 22.2868 61.7702 22.2868 61.837 22.5039C61.9063 22.7209 61.9063 22.7209 62.0292 22.8649C62.1548 23.007 62.1548 23.007 62.3144 23.0778C62.4767 23.1487 62.4767 23.1487 62.669 23.1487C62.9152 23.1487 62.9152 23.1487 63.1206 23.0264C63.3278 22.9037 63.3278 22.9037 63.4489 22.6478C63.5718 22.392 63.5718 22.392 63.5718 22.018Z" fill="#162D50"/>
<path d="M65.7556 22.2544H65.5308V23.2669C65.5308 23.4672 65.5308 23.4672 65.4423 23.5615C65.3539 23.6563 65.3539 23.6562 65.2111 23.6562C65.0578 23.6562 65.0578 23.6562 64.9735 23.5574C64.8892 23.4582 64.8892 23.4582 64.8892 23.2669V20.8421C64.8892 20.6355 64.8892 20.6355 64.9821 20.543C65.0751 20.4505 65.0751 20.4505 65.2823 20.4505H66.3261C66.5419 20.4505 66.5419 20.4505 66.6956 20.4699C66.8489 20.4871 66.8489 20.4871 66.9718 20.543C67.121 20.6053 67.121 20.6053 67.2356 20.7217C67.3499 20.8376 67.3499 20.8376 67.4084 20.9924C67.4687 21.1449 67.4688 21.1449 67.4688 21.3172C67.4688 21.6696 67.4687 21.6696 67.2679 21.8803C67.0692 22.0911 67.0692 22.0911 66.663 22.1791C66.8339 22.2693 66.8339 22.2693 66.9894 22.4457C67.1449 22.6221 67.1449 22.6221 67.2656 22.822C67.3889 23.0197 67.3889 23.0197 67.456 23.1811C67.525 23.34 67.525 23.34 67.525 23.4004C67.525 23.4627 67.525 23.4627 67.4841 23.525C67.4451 23.5854 67.4451 23.5854 67.3762 23.6197C67.3068 23.6563 67.3068 23.6562 67.2161 23.6562C67.1082 23.6562 67.1082 23.6563 67.0348 23.6044C66.9613 23.5552 66.9613 23.5552 66.9073 23.4776C66.8552 23.4004 66.8552 23.4004 66.7645 23.2498L66.5074 22.8242C66.3692 22.5897 66.3692 22.5897 66.259 22.4673C66.151 22.3446 66.151 22.3446 66.0386 22.2995C65.9262 22.2544 65.9262 22.2544 65.7556 22.2544ZM66.1229 20.9301H65.5308V21.7964H66.1057C66.3369 21.7964 66.3369 21.7964 66.4943 21.7577C66.6521 21.717 66.6521 21.717 66.7342 21.6223C66.8185 21.5257 66.8185 21.5257 66.8185 21.3579C66.8185 21.227 66.8185 21.227 66.7514 21.1278C66.6847 21.0267 66.6847 21.0267 66.5659 20.9775C66.4535 20.9301 66.4535 20.9301 66.1229 20.9301Z" fill="#162D50"/>
<path d="M70.0268 20.9775H69.3267V23.2669C69.3267 23.4649 69.3267 23.4649 69.2383 23.5615C69.1498 23.6563 69.1498 23.6562 69.0093 23.6562C68.8665 23.6562 68.8665 23.6562 68.7758 23.5593C68.6874 23.4627 68.6874 23.4627 68.6874 23.2669V20.9775H67.9873C67.8231 20.9775 67.8231 20.9775 67.7433 20.9066C67.6631 20.8335 67.6631 20.8335 67.6631 20.7149C67.6631 20.5926 67.6631 20.5926 67.7452 20.5218C67.8295 20.4505 67.8295 20.4505 67.9873 20.4505H70.0268C70.1932 20.4505 70.1932 20.4505 70.273 20.5236C70.3551 20.5967 70.3551 20.5967 70.3551 20.7149C70.3551 20.8335 70.3551 20.8335 70.273 20.9066C70.191 20.9775 70.191 20.9775 70.0268 20.9775Z" fill="#162D50"/>
<path d="M50.2731 37.9798C50.1652 37.9787 50.0648 38.0354 50.0104 38.1286C49.9564 38.2218 49.9568 38.3367 50.0115 38.4295C50.0666 38.522 50.1674 38.5783 50.2754 38.5761L66.1442 38.522C66.2521 38.5235 66.3525 38.4665 66.4069 38.3732C66.4612 38.2804 66.4608 38.1651 66.4058 38.0726C66.3507 37.9798 66.2498 37.9238 66.1419 37.9257L50.2731 37.9798Z" fill="#162D50"/>
<path d="M58.511 29.9818C58.5121 29.8744 58.4551 29.7745 58.3614 29.7204C58.2677 29.6663 58.1523 29.6667 58.059 29.7215C57.966 29.776 57.9094 29.8763 57.9117 29.9841L57.966 45.7744C57.9645 45.8822 58.0219 45.9821 58.1156 46.0362C58.2089 46.0899 58.3247 46.0895 58.4176 46.0351C58.511 45.9802 58.5672 45.8799 58.5653 45.7725L58.511 29.9818Z" fill="#162D50"/>
<path d="M58.2146 29.6844C58.1467 29.6844 58.0812 29.7068 58.0283 29.7485C57.1472 30.4224 56.2211 31.1332 55.3164 32.5429C54.4121 33.9526 53.5119 36.0533 53.4973 38.113C53.4823 40.1731 54.3585 42.0978 55.2763 43.3993C56.1938 44.7012 57.1663 45.377 58.0939 46.0199C58.182 46.0829 58.2966 46.0937 58.3948 46.0486C58.493 46.0035 58.559 45.9091 58.568 45.8017C58.5766 45.6947 58.5264 45.591 58.4368 45.5306C57.5092 44.8877 56.627 44.2772 55.7669 43.057C54.9068 41.8367 54.083 40.0041 54.0965 38.1175C54.11 36.2308 54.9668 34.1961 55.8216 32.864C56.6765 31.5319 57.5126 30.8953 58.3933 30.2214C58.4968 30.1446 58.5395 30.0103 58.4987 29.8884C58.4582 29.7668 58.3435 29.6844 58.2146 29.6844Z" fill="#162D50"/>
<path d="M58.3168 29.6844C58.3846 29.6844 58.4502 29.7068 58.503 29.7485C59.3841 30.4224 60.3102 31.1336 61.2145 32.5429C62.1193 33.9526 63.0195 36.0533 63.0341 38.113C63.0491 40.1731 62.1728 42.0978 61.255 43.3993C60.3376 44.7012 59.3646 45.377 58.4371 46.0199C58.3494 46.0829 58.2343 46.0937 58.1361 46.0486C58.0383 46.0035 57.972 45.9091 57.9634 45.8017C57.9547 45.6947 58.005 45.591 58.0945 45.5306C59.0221 44.8877 59.9043 44.2772 60.7644 43.057C61.6246 41.8367 62.4483 40.0041 62.4348 38.1175C62.4213 36.2308 61.5646 34.1961 60.7097 32.864C59.8548 31.5319 59.0187 30.8953 58.1376 30.2214C58.0342 30.1446 57.9918 30.0103 58.0327 29.8884C58.0732 29.7668 58.1878 29.6844 58.3168 29.6844Z" fill="#162D50"/>
<path d="M58.1269 42.3149C56.3819 42.3149 54.6954 43.1398 53.0423 43.9349C52.9437 43.9801 52.8777 44.0748 52.8691 44.1822C52.8605 44.2896 52.9107 44.3933 53.0007 44.4533C53.0906 44.5134 53.2064 44.5204 53.3031 44.472C54.9563 43.6769 56.5757 42.9112 58.1269 42.9112C59.6781 42.9112 61.287 43.6765 62.9304 44.4716C63.0267 44.5201 63.1421 44.5134 63.2321 44.4533C63.322 44.3936 63.3726 44.29 63.3644 44.1829C63.3561 44.0755 63.2905 43.9808 63.1923 43.9353C61.5493 43.1402 59.8718 42.3149 58.1269 42.3149Z" fill="#162D50"/>
<path d="M58.2716 33.498C60.0165 33.498 61.703 32.6735 63.3562 31.878C63.4544 31.8329 63.5207 31.7386 63.5293 31.6311C63.5379 31.5237 63.4873 31.4201 63.3974 31.36C63.3074 31.2996 63.192 31.2925 63.0953 31.3414C61.4422 32.1365 59.8228 32.9017 58.2716 32.9017C56.72 32.9017 55.1111 32.1368 53.4681 31.3418C53.3717 31.2929 53.2563 31.3 53.1664 31.3597C53.0764 31.4197 53.0258 31.523 53.0341 31.6304C53.0423 31.7378 53.1079 31.8322 53.2061 31.878C54.8491 32.6731 56.5266 33.498 58.2716 33.498Z" fill="#162D50"/>
<path d="M50.2731 37.9798C50.1652 37.9787 50.0648 38.0354 50.0104 38.1286C49.9564 38.2218 49.9568 38.3367 50.0115 38.4295C50.0666 38.522 50.1674 38.5783 50.2754 38.5761L66.1442 38.522C66.2521 38.5235 66.3525 38.4665 66.4069 38.3732C66.4612 38.2804 66.4608 38.1651 66.4058 38.0726C66.3507 37.9798 66.2498 37.9238 66.1419 37.9257L50.2731 37.9798Z" fill="#162D50"/>
<path d="M58.511 29.9818C58.5121 29.8744 58.4551 29.7745 58.3614 29.7204C58.2677 29.6663 58.1523 29.6667 58.059 29.7215C57.966 29.776 57.9094 29.8763 57.9117 29.9841L57.966 45.7744C57.9645 45.8822 58.0219 45.9821 58.1156 46.0362C58.2089 46.0899 58.3247 46.0895 58.4176 46.0351C58.511 45.9802 58.5672 45.8799 58.5653 45.7725L58.511 29.9818Z" fill="#162D50"/>
<path d="M58.2146 29.6844C58.1467 29.6844 58.0812 29.7068 58.0283 29.7485C57.1472 30.4224 56.2211 31.1332 55.3164 32.5429C54.4121 33.9526 53.5119 36.0533 53.4973 38.113C53.4823 40.1731 54.3585 42.0978 55.2763 43.3993C56.1938 44.7012 57.1663 45.377 58.0939 46.0199C58.182 46.0829 58.2966 46.0937 58.3948 46.0486C58.493 46.0035 58.559 45.9091 58.568 45.8017C58.5766 45.6947 58.5264 45.591 58.4368 45.5306C57.5092 44.8877 56.627 44.2772 55.7669 43.057C54.9068 41.8367 54.083 40.0041 54.0965 38.1175C54.11 36.2308 54.9668 34.1961 55.8216 32.864C56.6765 31.5319 57.5126 30.8953 58.3933 30.2214C58.4968 30.1446 58.5395 30.0103 58.4987 29.8884C58.4582 29.7668 58.3435 29.6844 58.2146 29.6844Z" fill="#162D50"/>
<path d="M58.3168 29.6844C58.3846 29.6844 58.4502 29.7068 58.503 29.7485C59.3841 30.4224 60.3102 31.1336 61.2145 32.5429C62.1193 33.9526 63.0195 36.0533 63.0341 38.113C63.0491 40.1731 62.1728 42.0978 61.255 43.3993C60.3376 44.7012 59.3646 45.377 58.4371 46.0199C58.3494 46.0829 58.2343 46.0937 58.1361 46.0486C58.0383 46.0035 57.972 45.9091 57.9634 45.8017C57.9547 45.6947 58.005 45.591 58.0945 45.5306C59.0221 44.8877 59.9043 44.2772 60.7644 43.057C61.6246 41.8367 62.4483 40.0041 62.4348 38.1175C62.4213 36.2308 61.5646 34.1961 60.7097 32.864C59.8548 31.5319 59.0187 30.8953 58.1376 30.2214C58.0342 30.1446 57.9918 30.0103 58.0327 29.8884C58.0732 29.7668 58.1878 29.6844 58.3168 29.6844Z" fill="#162D50"/>
<path d="M58.1269 42.3149C56.3819 42.3149 54.6954 43.1398 53.0423 43.9349C52.9437 43.9801 52.8777 44.0748 52.8691 44.1822C52.8605 44.2896 52.9107 44.3933 53.0007 44.4533C53.0906 44.5134 53.2064 44.5204 53.3031 44.472C54.9563 43.6769 56.5757 42.9112 58.1269 42.9112C59.6781 42.9112 61.287 43.6765 62.9304 44.4716C63.0267 44.5201 63.1421 44.5134 63.2321 44.4533C63.322 44.3936 63.3726 44.29 63.3644 44.1829C63.3561 44.0755 63.2905 43.9808 63.1923 43.9353C61.5493 43.1402 59.8718 42.3149 58.1269 42.3149Z" fill="#162D50"/>
<path d="M58.2716 33.498C60.0165 33.498 61.703 32.6735 63.3562 31.878C63.4544 31.8329 63.5207 31.7386 63.5293 31.6311C63.5379 31.5237 63.4873 31.4201 63.3974 31.36C63.3074 31.2996 63.192 31.2925 63.0953 31.3414C61.4422 32.1365 59.8228 32.9017 58.2716 32.9017C56.72 32.9017 55.1111 32.1368 53.4681 31.3418C53.3717 31.2929 53.2563 31.3 53.1664 31.3597C53.0764 31.4197 53.0258 31.523 53.0341 31.6304C53.0423 31.7378 53.1079 31.8322 53.2061 31.878C54.8491 32.6731 56.5266 33.498 58.2716 33.498Z" fill="#162D50"/>
<path d="M58.203 29.5989C53.5726 29.5989 49.8125 33.3401 49.8125 37.9477C49.8125 42.5553 53.5726 46.2969 58.203 46.2969C62.8334 46.2969 66.5935 42.5553 66.5935 37.9477C66.5935 33.3401 62.8334 29.5989 58.203 29.5989ZM58.203 30.1974C62.5081 30.1974 65.9916 33.6638 65.9916 37.9477C65.9916 42.2319 62.5081 45.6983 58.203 45.6983C53.8976 45.6983 50.4144 42.2319 50.4144 37.9477C50.4144 33.6638 53.8976 30.1974 58.203 30.1974Z" fill="#162D50"/>
<path d="M66.8689 56.0701L49.468 56.1309C48.6971 56.1336 48.0918 55.2941 48.1113 54.2506C48.1312 53.2071 48.7675 52.3664 49.5384 52.3637L66.9393 52.3029C67.7106 52.3002 68.3155 53.1397 68.296 54.1832C68.2765 55.2267 67.6398 56.0674 66.8689 56.0701Z" fill="#162D50"/>
<path d="M23.8341 23.4364L27.5493 26.3442C27.7139 26.4728 28.0939 26.2524 28.4005 25.8508C28.7074 25.4491 28.8213 25.0229 28.6564 24.8938L24.9414 21.9861C24.7768 21.8574 24.3969 22.0778 24.0902 22.4795C23.7834 22.8811 23.6695 23.3074 23.8341 23.4364Z" fill="#A1E4E4"/>
<path d="M22.7296 30.0028L26.4448 32.9106C26.6093 33.0392 26.9893 32.8188 27.2962 32.4172C27.6028 32.0155 27.7167 31.5893 27.5522 31.4602L23.8369 28.5525C23.6723 28.4238 23.2924 28.6442 22.9857 29.0459C22.679 29.4475 22.565 29.8742 22.7296 30.0028Z" fill="#A1E4E4"/>
<path d="M32.8958 23.3128L26.7468 18.7283C26.534 18.5624 26.2495 18.5755 26.1086 18.7567L22.9933 36.8144C22.8525 36.9957 22.9107 37.275 23.1237 37.4406L24.6721 38.9248C24.8849 39.0904 25.1697 39.0774 25.3103 38.8961L31.5376 26.2306L33.8485 24.5741C34.037 24.4391 33.1087 23.4784 32.8958 23.3128Z" fill="#A1E4E4"/>
<path d="M32.732 12.0331L36.4831 14.8942C36.6495 15.021 36.5292 15.4421 36.214 15.8374C35.8988 16.2323 35.512 16.4479 35.3456 16.3211L31.5941 13.46C31.4281 13.3332 31.5484 12.9125 31.8636 12.5172C32.1784 12.1219 32.5656 11.9063 32.732 12.0331Z" fill="#A1E4E4"/>
<path d="M38.8506 9.34172L42.6017 12.2028C42.7681 12.3296 42.6478 12.7507 42.3327 13.146C42.0175 13.5409 41.6307 13.7565 41.4643 13.6297L37.7128 10.7686C37.5468 10.6418 37.6671 10.2211 37.9823 9.82578C38.2971 9.43047 38.6842 9.21492 38.8506 9.34172Z" fill="#A1E4E4"/>
<path d="M34.797 20.8746L28.8099 16.0828C28.5959 15.9187 28.5378 15.6408 28.6795 15.4603L45.489 7.98269C45.6306 7.80219 45.917 7.78913 46.131 7.95322L47.9595 9.07836C48.1735 9.24245 48.2316 9.52028 48.0899 9.70078L37.3016 18.8421L36.2612 21.4806C36.1761 21.6958 35.011 21.039 34.797 20.8746Z" fill="#A1E4E4"/>
<path d="M45.8654 32.0269L42.2323 29.287C42.106 29.1889 41.9583 29.1691 41.9014 29.2426L41.9328 37.5478C41.8763 37.6212 41.9321 37.7592 42.0584 37.8573L43.0036 38.7039C43.1303 38.8023 43.2775 38.8221 43.3345 38.7486L45.4239 33.2911L46.4789 32.7135C46.5651 32.6661 45.9917 32.125 45.8654 32.0269Z" fill="#A1E4E4"/>
<path d="M46.6349 31.0393L43.0674 28.2159C42.9403 28.1182 42.8845 27.9809 42.9422 27.9078L51.0359 25.8802C51.0932 25.8075 51.2416 25.8272 51.3687 25.9246L52.427 26.6261C52.5537 26.7238 52.6095 26.861 52.5522 26.9341L47.7566 30.3006L47.4556 31.4608C47.4309 31.5555 46.7619 31.137 46.6349 31.0393Z" fill="#A1E4E4"/>
<path d="M45.2386 27.8281L21.6819 9.53207C20.806 8.85184 17.4108 7.55255 16.6316 8.59676C15.8523 9.64097 17.9929 12.6218 18.8688 13.302L42.4255 31.5984C43.3014 32.2783 49.0962 34.2064 49.2955 33.9397C49.5474 33.6018 46.1141 28.5083 45.2386 27.8281Z" fill="#A1E4E4"/>
<path d="M70.1025 44.1881C69.8412 44.448 69.4874 44.5946 69.119 44.5957C68.7506 44.5968 68.398 44.4525 68.1383 44.194C67.5974 43.6559 67.6001 42.781 68.1442 42.2395C68.688 41.6984 69.5676 41.6958 70.1081 42.2335C70.3678 42.492 70.5132 42.8433 70.5121 43.2095C70.511 43.5761 70.3637 43.9281 70.1025 44.1881Z" fill="#162D50"/>
<path d="M69.632 43.7159C69.4967 43.8509 69.313 43.927 69.1215 43.9277C68.9304 43.9281 68.7471 43.8531 68.6126 43.7189C68.3319 43.4396 68.333 42.9853 68.6156 42.7041C68.8978 42.4233 69.3546 42.4218 69.6353 42.7012C69.7699 42.8354 69.8456 43.0174 69.8448 43.208C69.8445 43.3982 69.7676 43.5809 69.632 43.7159Z" fill="#5599FF"/>
<path d="M76.2156 50.2681C75.9544 50.528 75.6006 50.6747 75.2322 50.6758C74.8638 50.6769 74.5111 50.5323 74.2514 50.274C73.7106 49.7359 73.7136 48.8609 74.2574 48.3196C74.8016 47.7782 75.6808 47.7756 76.2216 48.3137C76.4813 48.5721 76.6264 48.9231 76.6252 49.2896C76.6241 49.6561 76.4768 50.0081 76.2156 50.2681Z" fill="#162D50"/>
<path d="M75.745 49.8039C75.6093 49.9389 75.4257 50.015 75.2345 50.0156C75.043 50.0162 74.8601 49.9411 74.7252 49.807C74.4445 49.5276 74.446 49.0733 74.7282 48.7923C75.0108 48.5113 75.4673 48.5099 75.748 48.7892C75.8829 48.9234 75.9582 49.1057 75.9575 49.2959C75.9571 49.4862 75.8807 49.669 75.745 49.8039Z" fill="#5599FF"/>
<path d="M96.3823 27.9851C96.4913 27.8024 96.5532 27.56 96.5318 27.2881C96.5033 26.9256 96.3156 26.5456 96.0776 26.3121L91.8269 22.1424C91.3509 21.6755 90.839 21.668 90.4754 22.0391L84.1072 28.533C83.9255 28.7183 83.8063 29.029 83.8348 29.3914C83.8632 29.7536 84.0506 30.1336 84.2886 30.367V30.3667L88.5397 34.5372C89.0153 35.0037 89.5272 35.0115 89.8912 34.6405V34.6401L96.259 28.1466V28.1462C96.3043 28.1 96.3459 28.0459 96.3823 27.9851ZM94.9338 27.1143L89.0505 33.1141L85.4328 29.5649L91.3161 23.5655L94.9338 27.1143Z" fill="#162D50"/>
<path d="M35.9046 45.6002C35.8112 45.4299 35.6492 45.2732 35.4257 45.1731C35.1277 45.0396 34.7426 45.0314 34.4495 45.1286L29.2153 46.8659C28.6292 47.0604 28.3877 47.4842 28.5119 47.9484L30.6832 56.0777C30.7451 56.3097 30.9344 56.5439 31.2324 56.6774C31.5301 56.8107 31.915 56.8192 32.2081 56.722L37.4428 54.9846C38.0284 54.7903 38.2703 54.3666 38.1462 53.902L35.9748 45.7731C35.9593 45.7152 35.9357 45.6569 35.9046 45.6002ZM34.5533 46.4308L36.5596 53.9412L32.1045 55.4195L30.0986 47.9093L34.5533 46.4308Z" fill="#162D50"/>
<path d="M80.8886 25.6672L92.7915 37.5574C92.7915 37.5574 84.6529 45.7623 80.8766 49.52C80.1435 50.2493 78.2813 51.0931 76.3096 49.1312L69.2679 42.1213C67.2625 40.125 68.2515 38.2425 68.9958 37.5014C73.224 33.2944 80.8886 25.6672 80.8886 25.6672Z" fill="#162D50"/>
<path d="M69.6685 36.8336L81.6175 48.6777C81.6175 48.6777 89.8629 40.5794 93.6392 36.8213C94.3719 36.0923 95.22 34.2388 93.2483 32.2772L86.2036 25.2702C84.1974 23.2746 82.3055 24.2584 81.5612 24.9994C77.333 29.2064 69.6685 36.8336 69.6685 36.8336Z" fill="#5599FF"/>
<path d="M82.7279 29.5516L85.845 31.348C85.9027 31.3812 85.9229 31.4531 85.8896 31.5095L84.9826 33.0642C84.9496 33.1209 84.8762 33.1399 84.8184 33.1067L81.7014 31.3103C81.6437 31.2775 81.6235 31.2055 81.6565 31.1488L82.5638 29.5941C82.5968 29.5378 82.6699 29.5187 82.7279 29.5516Z" fill="white"/>
<path d="M86.9243 38.1098C86.5507 38.4816 85.945 38.4816 85.5717 38.1098C85.1981 37.7384 85.1981 37.1357 85.5717 36.7643C85.945 36.3925 86.5507 36.3925 86.9243 36.7643C87.2976 37.1357 87.2976 37.7384 86.9243 38.1098Z" fill="white"/>
<path d="M80.3217 37.1173L82.8653 39.6551C82.9125 39.7017 82.9129 39.7767 82.8664 39.8229L81.5858 41.0909C81.5393 41.1367 81.4636 41.1364 81.4164 41.0898L78.8728 38.5516C78.8256 38.505 78.8248 38.43 78.8713 38.3841L80.1523 37.1158C80.1988 37.0699 80.2745 37.0703 80.3217 37.1173Z" fill="white"/>
<path d="M41.7138 72.052C41.7974 72.3616 42.0002 72.6258 42.2779 72.7864C42.5556 72.9471 42.8854 72.991 43.1946 72.9085C43.8384 72.7368 44.22 72.0749 44.0464 71.4301C43.8725 70.7854 43.2099 70.4019 42.5657 70.5736C42.2565 70.6561 41.993 70.8582 41.8334 71.1354C41.6737 71.4127 41.6306 71.7424 41.7138 72.052Z" fill="#F5CA79"/>
<path d="M42.2746 71.9033C42.3177 72.0641 42.423 72.2012 42.5673 72.2846C42.7112 72.368 42.8825 72.3908 43.0433 72.348C43.3776 72.2589 43.5755 71.9152 43.4855 71.5805C43.3952 71.2457 43.0512 71.0466 42.7169 71.1358C42.5561 71.1786 42.4193 71.2835 42.3365 71.4275C42.2536 71.5714 42.2312 71.7426 42.2746 71.9033Z" fill="#162D50"/>
<path d="M34.4322 73.9954C34.5158 74.305 34.7185 74.5692 34.9962 74.7298C35.2739 74.8904 35.6034 74.9343 35.9129 74.8519C36.5568 74.6801 36.9383 74.0183 36.7644 73.3735C36.5909 72.7287 35.9283 72.3453 35.2841 72.517C34.9749 72.5994 34.7114 72.8015 34.5514 73.0788C34.3917 73.356 34.349 73.6857 34.4322 73.9954Z" fill="#F5CA79"/>
<path d="M34.9927 73.8447C35.0362 74.0055 35.1415 74.1426 35.2854 74.2261C35.4297 74.3094 35.601 74.3322 35.7614 74.2894C36.096 74.2003 36.2939 73.8566 36.2036 73.5219C36.1137 73.1871 35.7696 72.988 35.4349 73.0772C35.2745 73.12 35.1377 73.2249 35.0549 73.3688C34.9717 73.5128 34.9496 73.684 34.9927 73.8447Z" fill="#162D50"/>
<path d="M41.6826 53.3927L27.4854 57.2075C27.4854 57.2075 30.0361 66.9338 31.2414 71.4096C31.4752 72.2781 32.5122 73.7234 34.8606 73.0973L43.2488 70.8587C45.6377 70.2212 45.716 68.3706 45.4784 67.4883C44.1288 62.477 41.6826 53.3927 41.6826 53.3927Z" fill="#F5CA79"/>
<path d="M45.2636 66.6911L31 70.5C31 70.5 28.3736 60.7587 27.1683 56.283C26.9344 55.4144 27.1061 53.647 29.4544 53.0208L37.8438 50.7859C40.233 50.1494 41.2307 51.7132 41.4683 52.5955C42.8175 57.6068 45.2636 66.6911 45.2636 66.6911Z" fill="#162D50"/>
<path d="M38.5914 55.525L35.4508 55.5294C35.3927 55.5291 35.3458 55.5749 35.3462 55.6319L35.3499 57.1995C35.3503 57.2565 35.3972 57.3025 35.4553 57.3027L38.5959 57.2984C38.654 57.2986 38.7008 57.2529 38.7008 57.1959L38.6967 55.6283C38.6967 55.5713 38.6495 55.5252 38.5914 55.525Z" fill="white"/>
<path d="M31.6732 60.168C31.7923 60.6107 32.2496 60.8733 32.6944 60.7547C33.1393 60.6361 33.4031 60.1811 33.2839 59.7385C33.1648 59.2959 32.7075 59.0332 32.2627 59.1518C31.8178 59.2704 31.554 59.7254 31.6732 60.168Z" fill="white"/>
<path d="M37.0939 62.2821L34.0616 63.0952C34.0053 63.1099 33.972 63.1662 33.987 63.2212L34.3985 64.7343C34.4135 64.7893 34.4708 64.8217 34.527 64.807L37.5597 63.9939C37.6159 63.9791 37.6489 63.9229 37.6339 63.8679L37.2224 62.3548C37.2074 62.2997 37.1501 62.2673 37.0939 62.2821Z" fill="white"/>
<path d="M34.1247 33.4155C32.6994 33.4155 31.5439 34.5335 31.5439 35.9126C31.5439 37.2917 34.1775 40.3691 34.1775 40.3691C34.1775 40.3691 36.7054 37.2917 36.7054 35.9126C36.7054 34.5335 35.5499 33.4155 34.1247 33.4155ZM34.1588 34.4951C34.5347 34.4951 34.8952 34.6424 35.1609 34.9042C35.4266 35.166 35.5762 35.521 35.5762 35.891C35.5762 36.6618 34.9413 37.2869 34.1588 37.2869C33.3759 37.2869 32.7414 36.6618 32.7414 35.891C32.7414 35.1201 33.3759 34.4951 34.1588 34.4951Z" fill="#162D50"/>
<path d="M35.6967 35.8802C35.6967 36.2979 35.531 36.6984 35.2361 36.9938C34.9411 37.2891 34.5408 37.4551 34.1237 37.4551C33.255 37.4551 32.5508 36.7499 32.5508 35.8802C32.5508 35.0105 33.255 34.3053 34.1237 34.3053C34.5408 34.3053 34.9411 34.4713 35.2361 34.7666C35.531 35.062 35.6967 35.4625 35.6967 35.8802Z" fill="white"/>
<path d="M89.2932 48.4126C91.5329 47.8154 93.8216 49.088 94.4051 51.2551C94.9887 53.4221 92.1527 59.3613 92.1527 59.3613C92.1527 59.3613 86.8781 55.5846 86.2946 53.4176C85.7111 51.2505 87.0535 49.0097 89.2932 48.4126ZM89.6968 50.1236C89.1062 50.2811 88.6017 50.6632 88.2948 51.1859C87.9879 51.7085 87.9035 52.329 88.0602 52.9107C88.3862 54.122 89.6477 54.8382 90.8778 54.5102C92.1078 54.1823 92.8405 52.9344 92.5144 51.7231C92.188 50.5118 90.9265 49.7957 89.6968 50.1236Z" fill="#F7C560"/>
<path d="M87.864 52.944C88.0408 53.6003 88.4707 54.1602 89.0591 54.5007C89.6479 54.8411 90.3468 54.9342 91.0023 54.7594C92.3673 54.3955 93.1757 52.9925 92.8076 51.6258C92.4396 50.2592 91.0346 49.4464 89.6696 49.8103C89.0141 49.9852 88.4553 50.4135 88.1169 51.0011C87.7785 51.5888 87.6874 52.2877 87.864 52.944Z" fill="white"/>
<path d="M58.3924 59.0857C55.8012 58.3948 53.1531 59.8673 52.4777 62.3746C51.8027 64.882 55.0839 71.7539 55.0839 71.7539C55.0839 71.7539 61.1868 67.3841 61.8621 64.8767C62.5371 62.3694 60.984 59.7766 58.3924 59.0857ZM57.9259 61.0655C58.6091 61.2477 59.1926 61.6898 59.5475 62.2946C59.9028 62.8993 60.0002 63.6172 59.8192 64.2902C59.4418 65.6918 57.9821 66.5204 56.559 66.1409C55.136 65.7615 54.2883 64.3177 54.6657 62.9162C55.0431 61.5146 56.5024 60.686 57.9259 61.0655Z" fill="#5599FF"/>
<path d="M60.0453 64.3289C59.841 65.0882 59.3437 65.7362 58.6627 66.1301C57.9818 66.5241 57.173 66.6317 56.4145 66.4295C54.8351 66.0083 53.8997 64.385 54.3255 62.8038C54.7512 61.2225 56.377 60.282 57.9563 60.7032C58.7148 60.9054 59.3613 61.401 59.753 62.081C60.1446 62.7609 60.2499 63.5695 60.0453 64.3289Z" fill="white"/>
</g>
<defs>
<clipPath id="clip0_111_119">
<rect width="113" height="75" fill="white"/>
</clipPath>
</defs>
</svg>
