<svg width="92" height="79" viewBox="0 0 92 79" fill="none" xmlns="http://www.w3.org/2000/svg">
<path d="M86 8H6C2.68629 8 0 10.6863 0 14V53.8974C0 57.2111 2.68629 59.8974 6 59.8974H86C89.3137 59.8974 92 57.2111 92 53.8974V14C92 10.6863 89.3137 8 86 8Z" fill="#0E4595"/>
<path d="M34.5824 44.1046L38.5172 21.015H44.811L40.8733 44.1046H34.5824ZM63.6107 21.5127C62.364 21.045 60.4099 20.543 57.9702 20.543C51.7513 20.543 47.3707 23.6745 47.3336 28.1628C47.2983 31.4807 50.4608 33.3316 52.8479 34.436C55.2978 35.5677 56.1212 36.2895 56.1096 37.3002C56.0942 38.8478 54.1533 39.5549 52.3445 39.5549C49.8255 39.5549 48.4872 39.2049 46.4203 38.3428L45.6093 37.976L44.7259 43.1449C46.1959 43.7894 48.9143 44.3477 51.7366 44.3766C58.3523 44.3766 62.6468 41.2809 62.6959 36.488C62.7194 33.8614 61.0427 31.8625 57.4117 30.2145C55.2119 29.1465 53.8647 28.4336 53.879 27.3521C53.879 26.3924 55.0193 25.366 57.4832 25.366C59.5412 25.3342 61.0322 25.783 62.1938 26.2506L62.7577 26.5172L63.6107 21.5127ZM79.8062 21.0146H74.943C73.4364 21.0146 72.309 21.4259 71.6474 22.9294L62.3007 44.0894H68.9094C68.9094 44.0894 69.9899 41.2441 70.2342 40.6196C70.9567 40.6196 77.3766 40.6295 78.2946 40.6295C78.4829 41.4378 79.0601 44.0894 79.0601 44.0894H84.9002L79.8062 21.0139V21.0146ZM72.0903 35.9245C72.6107 34.5942 74.5979 29.47 74.5979 29.47C74.5606 29.5316 75.1144 28.1332 75.4322 27.2663L75.8574 29.2571C75.8574 29.2571 77.0628 34.7688 77.3146 35.9245H72.0903ZM29.2395 21.0146L23.0779 36.7608L22.4213 33.5609C21.2742 29.8722 17.7004 25.8759 13.7051 23.8751L19.339 44.068L25.9979 44.0604L35.9061 21.0144H29.2395" fill="white"/>
<path d="M17.3288 21.0141H7.18042L7.1001 21.4946C14.9953 23.4058 20.2195 28.0245 22.3886 33.5737L20.1818 22.963C19.8008 21.501 18.696 21.0647 17.3291 21.0137" fill="#F2AE14"/>
<circle cx="74.5" cy="61.8848" r="16.5" fill="#A1E4E4"/>
<path d="M71.4146 64.0002L66.3659 58.0771L63 60.2309L71.4146 69.3848L86 58.6155L83.1951 55.3848L71.4146 64.0002Z" fill="white"/>
</svg>
