<svg width="443" height="513" viewBox="0 0 443 513" fill="none" xmlns="http://www.w3.org/2000/svg">
<path d="M91.7931 59.7963L252.176 2.41595C145.098 -12.0152 -8.1889 35.978 1.07367 206.761C4.7523 274.587 28.0992 276.425 76.4042 260.445C91.9975 254.381 343.992 148.933 356.691 148.933C431.798 161.488 406.997 229.002 388.119 290.75C514.133 197.129 396.489 -31.9302 261.412 29.2579L99.2731 84.2764C82.6131 89.7164 72.753 67.2764 91.7931 59.7963Z" fill="url(#paint0_linear_73_2)"/>
<path d="M78.7155 361.463L193.586 499.714C150.869 429.001 161.549 340.682 181.464 277.474L180.302 263.748L91.415 299.121C63.706 310.666 61.9743 338.951 78.7155 361.463Z" fill="url(#paint1_linear_73_2)"/>
<path d="M392.046 58.5895C355.766 52.1738 244.557 109.914 199.747 209.58L344.654 152.173C344.654 152.173 364.068 145.967 374.747 145.229C431.785 141.282 439.001 209.336 425.673 247.543C458.543 185.043 441.112 107.367 392.046 58.5895Z" fill="url(#paint2_linear_73_2)"/>
<path d="M259.682 475.469L382.635 329.425L220.717 399.85C188.68 412.26 175.981 377.625 208.306 364.349L382.635 293.348C459.985 259.001 449.746 111.897 345.117 152.175C372.894 141.481 387.709 179.489 360.857 190.137L180.302 263.748C152.644 340.109 160.106 430.733 180.31 479.221C205.744 525.95 223.441 522.334 259.682 475.469Z" fill="url(#paint3_linear_73_2)"/>
<defs>
<linearGradient id="paint0_linear_73_2" x1="0.672853" y1="186.434" x2="421.969" y2="75.3228" gradientUnits="userSpaceOnUse">
<stop stop-color="#152E30"/>
<stop offset="1" stop-color="#1BC8C8"/>
</linearGradient>
<linearGradient id="paint1_linear_73_2" x1="60.5312" y1="331.446" x2="186.371" y2="351.65" gradientUnits="userSpaceOnUse">
<stop stop-color="#0C4849"/>
<stop offset="1" stop-color="#1B7879"/>
</linearGradient>
<linearGradient id="paint2_linear_73_2" x1="270.58" y1="148.471" x2="396.969" y2="66.9895" gradientUnits="userSpaceOnUse">
<stop stop-color="#36A5A6"/>
<stop offset="0.793154" stop-color="#1BB3B3"/>
<stop offset="1" stop-color="#1BBEBE"/>
</linearGradient>
<linearGradient id="paint3_linear_73_2" x1="314.808" y1="475.759" x2="457.677" y2="231.584" gradientUnits="userSpaceOnUse">
<stop stop-color="#1FA7A7"/>
<stop offset="1" stop-color="#153234"/>
</linearGradient>
</defs>
</svg>
